<mxfile host="app.diagrams.net" modified="2024-02-08T15:56:40.160Z" agent="Mozilla/5.0 (Windows NT 10.0; Win64; x64) AppleWebKit/537.36 (KHTML, like Gecko) Chrome/121.0.0.0 Safari/537.36" etag="EaLUnYw9ZMqgEpU6u8qT" version="23.1.1" type="github">
  <diagram id="kgpKYQtTHZ0yAKxKKP6v" name="Page-1">
    <mxGraphModel dx="878" dy="514" grid="1" gridSize="10" guides="1" tooltips="1" connect="1" arrows="1" fold="1" page="1" pageScale="1" pageWidth="850" pageHeight="1100" math="0" shadow="0">
      <root>
        <mxCell id="0" />
        <mxCell id="1" parent="0" />
        <mxCell id="AM0ow1BMnHBGBbMgDqAt-38" value="RecepciÃ³n e-CF" style="swimlane;horizontal=0;whiteSpace=wrap;html=1;" parent="1" vertex="1">
          <mxGeometry x="100" y="1070" width="810" height="600" as="geometry" />
        </mxCell>
        <mxCell id="AM0ow1BMnHBGBbMgDqAt-47" value="" style="endArrow=none;html=1;rounded=0;exitX=0;exitY=0.25;exitDx=0;exitDy=0;" parent="AM0ow1BMnHBGBbMgDqAt-38" edge="1">
          <mxGeometry width="50" height="50" relative="1" as="geometry">
            <mxPoint x="20" y="290" as="sourcePoint" />
            <mxPoint x="810" y="290" as="targetPoint" />
          </mxGeometry>
        </mxCell>
        <mxCell id="AM0ow1BMnHBGBbMgDqAt-49" value="" style="endArrow=none;html=1;rounded=0;exitX=0;exitY=0.25;exitDx=0;exitDy=0;" parent="AM0ow1BMnHBGBbMgDqAt-38" edge="1">
          <mxGeometry width="50" height="50" relative="1" as="geometry">
            <mxPoint y="490" as="sourcePoint" />
            <mxPoint x="810" y="490" as="targetPoint" />
          </mxGeometry>
        </mxCell>
        <mxCell id="AM0ow1BMnHBGBbMgDqAt-50" value="Receptor" style="text;html=1;align=center;verticalAlign=middle;resizable=0;points=[];autosize=1;strokeColor=none;fillColor=none;" parent="AM0ow1BMnHBGBbMgDqAt-38" vertex="1">
          <mxGeometry x="20" y="300" width="70" height="30" as="geometry" />
        </mxCell>
        <mxCell id="AM0ow1BMnHBGBbMgDqAt-51" value="DGII" style="text;html=1;align=center;verticalAlign=middle;resizable=0;points=[];autosize=1;strokeColor=none;fillColor=none;" parent="AM0ow1BMnHBGBbMgDqAt-38" vertex="1">
          <mxGeometry x="30" y="545" width="50" height="30" as="geometry" />
        </mxCell>
        <mxCell id="AM0ow1BMnHBGBbMgDqAt-48" value="STEM" style="text;html=1;align=center;verticalAlign=middle;resizable=0;points=[];autosize=1;strokeColor=none;fillColor=none;" parent="AM0ow1BMnHBGBbMgDqAt-38" vertex="1">
          <mxGeometry x="25" y="138" width="60" height="30" as="geometry" />
        </mxCell>
        <mxCell id="AM0ow1BMnHBGBbMgDqAt-46" value="Emisor" style="text;html=1;align=center;verticalAlign=middle;resizable=0;points=[];autosize=1;strokeColor=none;fillColor=none;" parent="AM0ow1BMnHBGBbMgDqAt-38" vertex="1">
          <mxGeometry x="25" y="38" width="60" height="30" as="geometry" />
        </mxCell>
        <mxCell id="AM0ow1BMnHBGBbMgDqAt-54" value="dispatch" style="html=1;verticalAlign=bottom;startArrow=circle;startFill=1;endArrow=open;startSize=6;endSize=8;curved=0;rounded=0;" parent="AM0ow1BMnHBGBbMgDqAt-38" target="AM0ow1BMnHBGBbMgDqAt-55" edge="1">
          <mxGeometry width="80" relative="1" as="geometry">
            <mxPoint x="140" y="44.5" as="sourcePoint" />
            <mxPoint x="220" y="44.5" as="targetPoint" />
          </mxGeometry>
        </mxCell>
        <mxCell id="AM0ow1BMnHBGBbMgDqAt-57" style="edgeStyle=orthogonalEdgeStyle;rounded=0;orthogonalLoop=1;jettySize=auto;html=1;" parent="AM0ow1BMnHBGBbMgDqAt-38" source="AM0ow1BMnHBGBbMgDqAt-55" target="AM0ow1BMnHBGBbMgDqAt-56" edge="1">
          <mxGeometry relative="1" as="geometry" />
        </mxCell>
        <mxCell id="AM0ow1BMnHBGBbMgDqAt-55" value="Envio&lt;br&gt;e-CF" style="ellipse;whiteSpace=wrap;html=1;" parent="AM0ow1BMnHBGBbMgDqAt-38" vertex="1">
          <mxGeometry x="220" y="4.5" width="100" height="75.5" as="geometry" />
        </mxCell>
        <mxCell id="AM0ow1BMnHBGBbMgDqAt-56" value="Recepcion&lt;br&gt;e-CF" style="ellipse;whiteSpace=wrap;html=1;" parent="AM0ow1BMnHBGBbMgDqAt-38" vertex="1">
          <mxGeometry x="227.5" y="110" width="85" height="40" as="geometry" />
        </mxCell>
        <mxCell id="AM0ow1BMnHBGBbMgDqAt-62" style="edgeStyle=orthogonalEdgeStyle;rounded=0;orthogonalLoop=1;jettySize=auto;html=1;entryX=0;entryY=0.5;entryDx=0;entryDy=0;" parent="AM0ow1BMnHBGBbMgDqAt-38" source="AM0ow1BMnHBGBbMgDqAt-58" target="AM0ow1BMnHBGBbMgDqAt-61" edge="1">
          <mxGeometry relative="1" as="geometry" />
        </mxCell>
        <mxCell id="AM0ow1BMnHBGBbMgDqAt-58" value="Valida&lt;br&gt;(Credenciales)" style="ellipse;whiteSpace=wrap;html=1;" parent="AM0ow1BMnHBGBbMgDqAt-38" vertex="1">
          <mxGeometry x="220" y="200" width="95" height="60" as="geometry" />
        </mxCell>
        <mxCell id="AM0ow1BMnHBGBbMgDqAt-60" style="edgeStyle=orthogonalEdgeStyle;rounded=0;orthogonalLoop=1;jettySize=auto;html=1;entryX=0;entryY=0.5;entryDx=0;entryDy=0;" parent="AM0ow1BMnHBGBbMgDqAt-38" source="AM0ow1BMnHBGBbMgDqAt-59" target="AM0ow1BMnHBGBbMgDqAt-58" edge="1">
          <mxGeometry relative="1" as="geometry" />
        </mxCell>
        <mxCell id="AM0ow1BMnHBGBbMgDqAt-59" value="Ingresa&lt;br&gt;Credenciales" style="ellipse;whiteSpace=wrap;html=1;" parent="AM0ow1BMnHBGBbMgDqAt-38" vertex="1">
          <mxGeometry x="127.5" y="320" width="95" height="60" as="geometry" />
        </mxCell>
        <mxCell id="AM0ow1BMnHBGBbMgDqAt-65" style="edgeStyle=orthogonalEdgeStyle;rounded=0;orthogonalLoop=1;jettySize=auto;html=1;entryX=0.5;entryY=1;entryDx=0;entryDy=0;" parent="AM0ow1BMnHBGBbMgDqAt-38" source="AM0ow1BMnHBGBbMgDqAt-61" target="AM0ow1BMnHBGBbMgDqAt-64" edge="1">
          <mxGeometry relative="1" as="geometry" />
        </mxCell>
        <mxCell id="AM0ow1BMnHBGBbMgDqAt-67" style="edgeStyle=orthogonalEdgeStyle;rounded=0;orthogonalLoop=1;jettySize=auto;html=1;entryX=1;entryY=0.5;entryDx=0;entryDy=0;" parent="AM0ow1BMnHBGBbMgDqAt-38" source="AM0ow1BMnHBGBbMgDqAt-61" target="AM0ow1BMnHBGBbMgDqAt-59" edge="1">
          <mxGeometry relative="1" as="geometry">
            <Array as="points">
              <mxPoint x="430" y="350" />
            </Array>
          </mxGeometry>
        </mxCell>
        <mxCell id="AM0ow1BMnHBGBbMgDqAt-61" value="Correcto" style="rhombus;whiteSpace=wrap;html=1;" parent="AM0ow1BMnHBGBbMgDqAt-38" vertex="1">
          <mxGeometry x="400" y="200" width="60" height="60" as="geometry" />
        </mxCell>
        <mxCell id="AM0ow1BMnHBGBbMgDqAt-70" style="edgeStyle=orthogonalEdgeStyle;rounded=0;orthogonalLoop=1;jettySize=auto;html=1;entryX=0;entryY=0.5;entryDx=0;entryDy=0;" parent="AM0ow1BMnHBGBbMgDqAt-38" source="AM0ow1BMnHBGBbMgDqAt-64" target="AM0ow1BMnHBGBbMgDqAt-69" edge="1">
          <mxGeometry relative="1" as="geometry" />
        </mxCell>
        <mxCell id="AM0ow1BMnHBGBbMgDqAt-64" value="Pantalla&lt;br&gt;Principal" style="ellipse;whiteSpace=wrap;html=1;" parent="AM0ow1BMnHBGBbMgDqAt-38" vertex="1">
          <mxGeometry x="387.5" y="110" width="85" height="40" as="geometry" />
        </mxCell>
        <mxCell id="AM0ow1BMnHBGBbMgDqAt-72" style="edgeStyle=orthogonalEdgeStyle;rounded=0;orthogonalLoop=1;jettySize=auto;html=1;entryX=0.5;entryY=0;entryDx=0;entryDy=0;" parent="AM0ow1BMnHBGBbMgDqAt-38" source="AM0ow1BMnHBGBbMgDqAt-69" target="AM0ow1BMnHBGBbMgDqAt-71" edge="1">
          <mxGeometry relative="1" as="geometry" />
        </mxCell>
        <mxCell id="7vOD9m9Gg4V_pLVgYohs-5" style="edgeStyle=orthogonalEdgeStyle;rounded=0;orthogonalLoop=1;jettySize=auto;html=1;entryX=0.5;entryY=1;entryDx=0;entryDy=0;" edge="1" parent="AM0ow1BMnHBGBbMgDqAt-38" source="AM0ow1BMnHBGBbMgDqAt-69" target="7vOD9m9Gg4V_pLVgYohs-2">
          <mxGeometry relative="1" as="geometry">
            <mxPoint x="640" y="70" as="targetPoint" />
          </mxGeometry>
        </mxCell>
        <mxCell id="AM0ow1BMnHBGBbMgDqAt-69" value="Acuse" style="ellipse;whiteSpace=wrap;html=1;" parent="AM0ow1BMnHBGBbMgDqAt-38" vertex="1">
          <mxGeometry x="635" y="110" width="85" height="40" as="geometry" />
        </mxCell>
        <mxCell id="AM0ow1BMnHBGBbMgDqAt-74" style="edgeStyle=orthogonalEdgeStyle;rounded=0;orthogonalLoop=1;jettySize=auto;html=1;entryX=1;entryY=0.5;entryDx=0;entryDy=0;" parent="AM0ow1BMnHBGBbMgDqAt-38" source="AM0ow1BMnHBGBbMgDqAt-71" target="AM0ow1BMnHBGBbMgDqAt-73" edge="1">
          <mxGeometry relative="1" as="geometry" />
        </mxCell>
        <mxCell id="AM0ow1BMnHBGBbMgDqAt-82" style="edgeStyle=orthogonalEdgeStyle;rounded=0;orthogonalLoop=1;jettySize=auto;html=1;entryX=0.5;entryY=0;entryDx=0;entryDy=0;" parent="AM0ow1BMnHBGBbMgDqAt-38" source="AM0ow1BMnHBGBbMgDqAt-71" target="AM0ow1BMnHBGBbMgDqAt-76" edge="1">
          <mxGeometry relative="1" as="geometry" />
        </mxCell>
        <mxCell id="AM0ow1BMnHBGBbMgDqAt-71" value="Aprueba&lt;br&gt;e-CF" style="rhombus;whiteSpace=wrap;html=1;" parent="AM0ow1BMnHBGBbMgDqAt-38" vertex="1">
          <mxGeometry x="632.5" y="190" width="90" height="80" as="geometry" />
        </mxCell>
        <mxCell id="AM0ow1BMnHBGBbMgDqAt-73" value="Acuse" style="ellipse;whiteSpace=wrap;html=1;" parent="AM0ow1BMnHBGBbMgDqAt-38" vertex="1">
          <mxGeometry x="490" y="210" width="85" height="40" as="geometry" />
        </mxCell>
        <mxCell id="AM0ow1BMnHBGBbMgDqAt-83" style="edgeStyle=orthogonalEdgeStyle;rounded=0;orthogonalLoop=1;jettySize=auto;html=1;entryX=0.5;entryY=0;entryDx=0;entryDy=0;" parent="AM0ow1BMnHBGBbMgDqAt-38" source="AM0ow1BMnHBGBbMgDqAt-76" target="AM0ow1BMnHBGBbMgDqAt-81" edge="1">
          <mxGeometry relative="1" as="geometry" />
        </mxCell>
        <mxCell id="AM0ow1BMnHBGBbMgDqAt-76" value="Notifiar" style="ellipse;whiteSpace=wrap;html=1;" parent="AM0ow1BMnHBGBbMgDqAt-38" vertex="1">
          <mxGeometry x="635" y="320" width="85" height="40" as="geometry" />
        </mxCell>
        <mxCell id="AM0ow1BMnHBGBbMgDqAt-45" value="" style="endArrow=none;html=1;rounded=0;exitX=0;exitY=0.25;exitDx=0;exitDy=0;" parent="AM0ow1BMnHBGBbMgDqAt-38" edge="1">
          <mxGeometry width="50" height="50" relative="1" as="geometry">
            <mxPoint y="89" as="sourcePoint" />
            <mxPoint x="810" y="90" as="targetPoint" />
          </mxGeometry>
        </mxCell>
        <mxCell id="AM0ow1BMnHBGBbMgDqAt-77" value="Recibe&lt;br&gt;Notificacion" style="ellipse;whiteSpace=wrap;html=1;" parent="AM0ow1BMnHBGBbMgDqAt-38" vertex="1">
          <mxGeometry x="635" y="545" width="85" height="40" as="geometry" />
        </mxCell>
        <mxCell id="AM0ow1BMnHBGBbMgDqAt-84" style="edgeStyle=orthogonalEdgeStyle;rounded=0;orthogonalLoop=1;jettySize=auto;html=1;entryX=0.5;entryY=0;entryDx=0;entryDy=0;" parent="AM0ow1BMnHBGBbMgDqAt-38" source="AM0ow1BMnHBGBbMgDqAt-81" target="AM0ow1BMnHBGBbMgDqAt-77" edge="1">
          <mxGeometry relative="1" as="geometry" />
        </mxCell>
        <mxCell id="AM0ow1BMnHBGBbMgDqAt-81" value="Quiero&lt;br&gt;Noficar?" style="rhombus;whiteSpace=wrap;html=1;" parent="AM0ow1BMnHBGBbMgDqAt-38" vertex="1">
          <mxGeometry x="643.75" y="390" width="67.5" height="80" as="geometry" />
        </mxCell>
        <mxCell id="AM0ow1BMnHBGBbMgDqAt-66" value="Si" style="text;html=1;align=center;verticalAlign=middle;resizable=0;points=[];autosize=1;strokeColor=none;fillColor=none;" parent="AM0ow1BMnHBGBbMgDqAt-38" vertex="1">
          <mxGeometry x="430" y="160" width="30" height="30" as="geometry" />
        </mxCell>
        <mxCell id="AM0ow1BMnHBGBbMgDqAt-68" value="No" style="text;html=1;align=center;verticalAlign=middle;resizable=0;points=[];autosize=1;strokeColor=none;fillColor=none;" parent="AM0ow1BMnHBGBbMgDqAt-38" vertex="1">
          <mxGeometry x="347.5" y="320" width="40" height="30" as="geometry" />
        </mxCell>
        <mxCell id="AM0ow1BMnHBGBbMgDqAt-75" value="No" style="text;html=1;align=center;verticalAlign=middle;resizable=0;points=[];autosize=1;strokeColor=none;fillColor=none;" parent="AM0ow1BMnHBGBbMgDqAt-38" vertex="1">
          <mxGeometry x="592.5" y="200" width="40" height="30" as="geometry" />
        </mxCell>
        <mxCell id="AM0ow1BMnHBGBbMgDqAt-87" value="No" style="text;html=1;align=center;verticalAlign=middle;resizable=0;points=[];autosize=1;strokeColor=none;fillColor=none;" parent="AM0ow1BMnHBGBbMgDqAt-38" vertex="1">
          <mxGeometry x="710" y="398" width="40" height="30" as="geometry" />
        </mxCell>
        <mxCell id="7vOD9m9Gg4V_pLVgYohs-2" value="Recibe Notificacion de acuse" style="ellipse;whiteSpace=wrap;html=1;" vertex="1" parent="AM0ow1BMnHBGBbMgDqAt-38">
          <mxGeometry x="592.5" y="15" width="85" height="40" as="geometry" />
        </mxCell>
        <mxCell id="7vOD9m9Gg4V_pLVgYohs-3" value="" style="ellipse;html=1;shape=endState;fillColor=#000000;strokeColor=#ff0000;" vertex="1" parent="AM0ow1BMnHBGBbMgDqAt-38">
          <mxGeometry x="750" y="20" width="30" height="30" as="geometry" />
        </mxCell>
        <mxCell id="7vOD9m9Gg4V_pLVgYohs-4" style="edgeStyle=orthogonalEdgeStyle;rounded=0;orthogonalLoop=1;jettySize=auto;html=1;" edge="1" parent="AM0ow1BMnHBGBbMgDqAt-38" source="7vOD9m9Gg4V_pLVgYohs-2" target="7vOD9m9Gg4V_pLVgYohs-3">
          <mxGeometry relative="1" as="geometry" />
        </mxCell>
        <mxCell id="7vOD9m9Gg4V_pLVgYohs-1" value="" style="shape=sumEllipse;perimeter=ellipsePerimeter;whiteSpace=wrap;html=1;backgroundOutline=1;" vertex="1" parent="AM0ow1BMnHBGBbMgDqAt-38">
          <mxGeometry x="770" y="405" width="40" height="50" as="geometry" />
        </mxCell>
        <mxCell id="AM0ow1BMnHBGBbMgDqAt-86" style="edgeStyle=orthogonalEdgeStyle;rounded=0;orthogonalLoop=1;jettySize=auto;html=1;entryX=0;entryY=0.5;entryDx=0;entryDy=0;" parent="AM0ow1BMnHBGBbMgDqAt-38" source="AM0ow1BMnHBGBbMgDqAt-81" target="7vOD9m9Gg4V_pLVgYohs-1" edge="1">
          <mxGeometry relative="1" as="geometry">
            <mxPoint x="770" y="430" as="targetPoint" />
          </mxGeometry>
        </mxCell>
        <mxCell id="7vOD9m9Gg4V_pLVgYohs-6" value="" style="shape=sumEllipse;perimeter=ellipsePerimeter;whiteSpace=wrap;html=1;backgroundOutline=1;" vertex="1" parent="AM0ow1BMnHBGBbMgDqAt-38">
          <mxGeometry x="770" y="540" width="40" height="50" as="geometry" />
        </mxCell>
        <mxCell id="AM0ow1BMnHBGBbMgDqAt-79" style="edgeStyle=orthogonalEdgeStyle;rounded=0;orthogonalLoop=1;jettySize=auto;html=1;entryX=0;entryY=0.5;entryDx=0;entryDy=0;" parent="AM0ow1BMnHBGBbMgDqAt-38" source="AM0ow1BMnHBGBbMgDqAt-77" target="7vOD9m9Gg4V_pLVgYohs-6" edge="1">
          <mxGeometry relative="1" as="geometry">
            <mxPoint x="770" y="565" as="targetPoint" />
          </mxGeometry>
        </mxCell>
        <mxCell id="AM0ow1BMnHBGBbMgDqAt-43" value="" style="endArrow=none;html=1;rounded=0;" parent="1" edge="1">
          <mxGeometry width="50" height="50" relative="1" as="geometry">
            <mxPoint x="190" y="1670" as="sourcePoint" />
            <mxPoint x="190" y="1070" as="targetPoint" />
            <Array as="points">
              <mxPoint x="190" y="1250" />
            </Array>
          </mxGeometry>
        </mxCell>
        <mxCell id="AM0ow1BMnHBGBbMgDqAt-89" value="Si" style="text;html=1;align=center;verticalAlign=middle;resizable=0;points=[];autosize=1;strokeColor=none;fillColor=none;" parent="1" vertex="1">
          <mxGeometry x="785" y="1538" width="30" height="30" as="geometry" />
        </mxCell>
      </root>
    </mxGraphModel>
  </diagram>
</mxfile>
